<?xml version="1.0" encoding="UTF-8"?>
<svg width="26px" height="26px" viewBox="0 0 26 26" version="1.1" xmlns="http://www.w3.org/2000/svg" xmlns:xlink="http://www.w3.org/1999/xlink">
    <!-- Generator: Sketch 46.2 (44496) - http://www.bohemiancoding.com/sketch -->
    <title>Group 3</title>
    <desc>Created with Sketch.</desc>
    <defs></defs>
    <g id="Page-1" stroke="none" stroke-width="1" fill-rule="evenodd">
        <g id="ui-kit" transform="translate(-161.000000, -1736.000000)">
            <g id="Group-3" transform="translate(162.000000, 1737.000000)">
                <!--<g id="Group-2-Copy" stroke="#FF6600" fill="#FFFFFF">-->
                    <!--<circle id="Oval-6" cx="12" cy="12" r="12"></circle>-->
                <!--</g>-->
                <g id="Page-1" transform="translate(6.000000, 6.000000)">
                    <path d="M10.6527158,3.06921643 L9.87546362,3.84667245 L7.93227329,1.90063283 L8.70952543,1.1231768 C8.86788345,0.964806132 9.1437685,0.964806132 9.30207853,1.1231768 L10.6527158,2.47652618 C10.8158718,2.63969597 10.8158718,2.90604664 10.6527158,3.06921643 M11.3460269,1.7830546 L11.3460269,1.7830546 L9.99541364,0.429705225 C9.7315236,0.165754105 8.77909644,-0.333353468 8.01861331,0.429705225 L5.61325554,2.83732337 C5.84214417,3.06976832 6.07141664,3.30182935 6.30088103,3.5337464 L7.23893818,2.59410441 L9.18212851,4.54014403 L8.24164838,5.48220958 C8.47348778,5.71328678 8.70585496,5.94390808 8.93824613,6.17440939 L11.3460269,3.76268801 C11.890624,3.21798888 11.890624,2.33015329 11.3460269,1.7830546" id="Fill-3"></path>
                    <path d="M1.19586332,10.5918234 L1.76682542,8.56419884 L3.22061968,10.0207291 L1.19586332,10.5918234 Z M5.76324825,7.96474185 L4.15862884,9.57201221 L2.2154385,7.62597258 L3.81885841,6.019902 L3.12602709,5.32688634 L1.17427232,7.28043657 C1.11429731,7.34042546 1.0711153,7.41241213 1.0495243,7.49399702 L0.0179541191,11.1677167 C-0.0300258892,11.3381092 0.0203531195,11.5204514 0.142702141,11.6476278 C0.267450162,11.7748043 0.516946206,11.7964003 0.622502224,11.7724047 L4.29297286,10.7382202 C4.37453888,10.7166002 4.44650889,10.6734082 4.5064839,10.6134194 L6.45754296,8.65917325 L5.76324825,7.96474185 Z" id="Fill-8"></path>
                    <path d="M11.1421214,11.3714462 C11.003987,11.3714462 10.8658286,11.3187519 10.7604405,11.2133155 L0.672643732,1.123184 C0.461843565,0.912335049 0.461843565,0.570494353 0.672643732,0.359645399 C0.883419908,0.148796445 1.22522949,0.148796445 1.43600566,0.359645399 L11.5238024,10.4497769 C11.7345786,10.6606258 11.7345786,11.0024665 11.5238024,11.2133155 C11.4184143,11.3187519 11.2802559,11.3714462 11.1421214,11.3714462" id="Fill-11"></path>
                </g>
            </g>
        </g>
    </g>
</svg>