<?xml version="1.0" encoding="UTF-8"?>
<svg width="26px" height="26px" viewBox="0 0 26 26" version="1.1" xmlns="http://www.w3.org/2000/svg" xmlns:xlink="http://www.w3.org/1999/xlink">
    <!-- Generator: Sketch 46.2 (44496) - http://www.bohemiancoding.com/sketch -->
    <title>Group 2</title>
    <desc>Created with Sketch.</desc>
    <defs></defs>
    <g id="Page-1" stroke-width="1" fill-rule="evenodd">
        <g id="ui-kit" transform="translate(-127.000000, -1736.000000)">
            <g id="Group-2" transform="translate(128.000000, 1737.000000)">
                <!--<circle id="Oval-6" stroke="#244775" fill="#FFFFFF" cx="12" cy="12" r="12"></circle>-->
                <path d="M17.3044044,8.25919985 L16.0301507,6.98268279 C15.7811846,6.7337167 14.8826433,6.26294445 14.1651683,6.98268279 L7.70789321,13.4444845 C7.65131001,13.5010678 7.6105701,13.5689676 7.59020015,13.6459207 L6.61696906,17.1110761 C6.5717025,17.2717724 6.61923239,17.4437853 6.73466212,17.5637417 C6.85235518,17.6836755 7.08774131,17.7040681 7.18732774,17.6814348 L10.6502198,16.7059404 C10.7271729,16.6855704 10.7950728,16.6448305 10.851656,16.5882473 L17.3044044,10.1264455 C17.8181799,9.61267006 17.8181799,8.77523865 17.3044044,8.25919985 L17.3044044,8.25919985 Z M8.26693525,14.6553651 L9.63851209,16.0292053 L7.72826316,16.5678773 L8.26693525,14.6553651 Z M10.5234734,15.6059629 L8.69017761,13.7704038 L13.4295867,9.02420475 L15.2628824,10.8597638 L10.5234734,15.6059629 Z M16.6503026,9.47234371 L15.9169843,10.205662 L14.0836885,8.37010292 L14.8170068,7.63678462 C14.9663865,7.48740496 15.2266692,7.48740496 15.3760488,7.63678462 L16.6503026,8.91330167 C16.8042089,9.06720798 16.8042089,9.3184374 16.6503026,9.47234371 L16.6503026,9.47234371 Z" id="Fill-1"></path>
            </g>
        </g>
    </g>
</svg>