<?xml version="1.0" encoding="UTF-8"?>
<svg width="16px" height="16px" viewBox="0 0 16 16" version="1.1" xmlns="http://www.w3.org/2000/svg" xmlns:xlink="http://www.w3.org/1999/xlink">
    <!-- Generator: Sketch 46.2 (44496) - http://www.bohemiancoding.com/sketch -->
    <title>comment copy</title>
    <desc>Created with Sketch.</desc>
    <defs></defs>
    <g id="Page-1" stroke="none" stroke-width="1" fill="none" fill-rule="evenodd">
        <g id="ui-kit" transform="translate(-641.000000, -2369.000000)">
            <g id="comment" transform="translate(641.000000, 2369.000000)">
                <g id="Group">
                    <!--<circle id="Oval-Copy" fill="#D3D3D3" cx="8" cy="8" r="8"></circle>-->
                    <path d="M7.01109878,10 C7.01109878,9.36507619 7.08656972,8.85941231 7.23751387,8.4829932 C7.38845802,8.10657408 7.66481486,7.73582949 8.06659267,7.3707483 C8.46837049,7.00566711 8.73584839,6.70861793 8.86903441,6.47959184 C9.00222042,6.25056575 9.06881243,6.00907156 9.06881243,5.75510204 C9.06881243,4.9886583 8.72253398,4.60544218 8.0299667,4.60544218 C7.7014412,4.60544218 7.43840276,4.70861575 7.24084351,4.91496599 C7.04328425,5.12131622 6.94006664,5.40589388 6.93118757,5.76870748 L5,5.76870748 C5.00887907,4.90249 5.28301617,4.22449224 5.82241953,3.73469388 C6.3618229,3.24489551 7.09766459,3 8.0299667,3 C8.97114788,3 9.70144024,3.23242398 10.2208657,3.69727891 C10.7402912,4.16213384 11,4.81858986 11,5.66666667 C11,6.05215612 10.9156501,6.41609806 10.7469478,6.7585034 C10.5782455,7.10090874 10.283021,7.48072354 9.86126526,7.89795918 L9.32186459,8.42176871 C8.98446002,8.75283612 8.7913432,9.14058735 8.74250832,9.58503401 L8.71587125,10 L7.01109878,10 Z M7,12.0065359 C7,11.7145955 7.09362046,11.4738572 7.2808642,11.2843137 C7.46810793,11.0947703 7.70781747,11 8,11 C8.29218253,11 8.53189207,11.0947703 8.7191358,11.2843137 C8.90637954,11.4738572 9,11.7145955 9,12.0065359 C9,12.2941191 8.90843713,12.5315895 8.72530864,12.7189542 C8.54218015,12.906319 8.30041302,13 8,13 C7.69958698,13 7.45781985,12.906319 7.27469136,12.7189542 C7.09156287,12.5315895 7,12.2941191 7,12.0065359 Z" id="?-copy" fill="#FFFFFF"></path>
                </g>
            </g>
        </g>
    </g>
</svg>