<?xml version="1.0" encoding="UTF-8"?>
<svg width="24px" height="18px" viewBox="0 0 24 18" version="1.1" xmlns="http://www.w3.org/2000/svg" xmlns:xlink="http://www.w3.org/1999/xlink">
    <!-- Generator: Sketch 46.2 (44496) - http://www.bohemiancoding.com/sketch -->
    <title>Group 13</title>
    <desc>Created with Sketch.</desc>
    <defs></defs>
    <g id="Symbols" stroke="none" stroke-width="1" fill="none" fill-rule="evenodd">
        <g id="Organisms/Footer" transform="translate(-1028.000000, -299.000000)" fill-rule="nonzero">
            <g id="Footer" transform="translate(0.000000, 244.000000)">
                <g id="Group-18" transform="translate(984.000000, 48.000000)">
                    <g id="Group-16" transform="translate(40.000000, 0.000000)">
                        <g id="Group-13" transform="translate(4.000000, 7.000000)">
                            <path d="M22.9458843,14.5746954 C22.7126523,15.804878 21.7179881,16.7423783 20.4878049,16.9161588 C18.5556404,17.2088418 15.3361282,17.5609756 11.7073171,17.5609756 C8.13567102,17.5609756 4.91615883,17.2088418 2.92682927,16.9161588 C1.69664663,16.7423783 0.701981854,15.804878 0.468749854,14.5746954 C0.233232,13.2301832 0,11.2385672 0,8.7804878 C0,6.32240839 0.233232,4.33079298 0.468749854,2.98628078 C0.701981854,1.75609756 1.69664663,0.818597854 2.92682927,0.644817366 C4.85899376,0.352134439 8.07850595,0 11.7073171,0 C15.3361282,0 18.4984759,0.352134439 20.4878049,0.644817366 C21.7179881,0.818597854 22.7126523,1.75609756 22.9458843,2.98628078 C23.1814027,4.33079298 23.4740857,6.32240839 23.4740857,8.7804878 C23.4146341,11.2385672 23.1814027,13.2301832 22.9458843,14.5746954 Z" id="Shape" fill="#FF3D00"></path>
                            <polygon id="Shape" fill="#FFFFFF" points="9.36585366 12.8780488 9.36585366 4.68292683 16.3902439 8.7804878"></polygon>
                        </g>
                    </g>
                </g>
            </g>
        </g>
    </g>
</svg>