<?xml version="1.0" encoding="UTF-8"?><!DOCTYPE svg PUBLIC "-//W3C//DTD SVG 1.1//EN" "http://www.w3.org/Graphics/SVG/1.1/DTD/svg11.dtd"><svg xmlns="http://www.w3.org/2000/svg"><symbol id="download" viewBox="0 0 15 17"><title>Page 1 Copy</title><g stroke-width="2" stroke="#FFF" fill="none" fill-rule="evenodd" stroke-linecap="round"><path d="M1 11.9v3.37h12.956v-3.437"/><path stroke-linejoin="round" d="M7.376 1.362v9.277l4.532-4.648M7.308 10.61L3.1 6.293"/></g></symbol><symbol id="message" viewBox="0 0 27 18"><title>letter</title><g stroke-width="2" stroke="#FFF" fill="none" fill-rule="evenodd"><path d="M1 1h25v16H1z"/><path stroke-linecap="round" stroke-linejoin="round" d="M1 1.22L13.5 11 26 1"/><path d="M2 16l7-8M25 16l-7-8"/></g></symbol><symbol id="pointer-white" viewBox="0 0 15 10"><title>Path 2 Copy</title><path d="M1 1l6.518 7L14 1.04" stroke-width="2" stroke="#FFF" fill="none" fill-rule="evenodd" stroke-linecap="round"/></symbol><symbol id="pointer" viewBox="0 0 16 10"><title>Path 2 Copy</title><path d="M1.6 1.6l6.509 6.509 6.472-6.472" stroke-width="2" stroke="#244775" fill="none" fill-rule="evenodd" stroke-linecap="round"/></symbol><symbol id="youtube" viewBox="0 0 24 18"><title>Group 13</title><g fill-rule="nonzero" fill="none"><path d="M22.946 14.575a2.917 2.917 0 0 1-2.458 2.341 60.91 60.91 0 0 1-8.78.645c-3.572 0-6.792-.352-8.781-.645a2.917 2.917 0 0 1-2.458-2.341C.233 13.23 0 11.239 0 8.78c0-2.458.233-4.45.469-5.794A2.917 2.917 0 0 1 2.927.645 60.91 60.91 0 0 1 11.707 0c3.63 0 6.791.352 8.78.645a2.917 2.917 0 0 1 2.459 2.341c.235 1.345.528 3.336.528 5.794-.06 2.459-.293 4.45-.528 5.795z" fill="#FF3D00"/><path fill="#FFF" d="M9.366 12.878V4.683L16.39 8.78z"/></g></symbol></svg>