<?xml version="1.0" encoding="UTF-8"?><!DOCTYPE svg PUBLIC "-//W3C//DTD SVG 1.1//EN" "http://www.w3.org/Graphics/SVG/1.1/DTD/svg11.dtd"><svg xmlns="http://www.w3.org/2000/svg"><symbol id="close" viewBox="0 0 32 32"><title>close</title><g stroke="#D3D3D3" stroke-width="2" stroke-linecap="square" fill="none" fill-rule="evenodd"><path d="M21 11L11 21M21 21L11 11"/></g></symbol><symbol id="collapsed" viewBox="0 0 23 23"><title>icon</title><g fill="none" fill-rule="evenodd"><path stroke="#244775" stroke-width="2" d="M7.768 22.803l-.01-7.08-7.041-.01M15.232.197l.01 7.08 7.041.01"/><circle fill="#244775" cx="11.5" cy="11.5" r="1.5"/></g></symbol><symbol id="download" viewBox="0 0 15 17"><title>Page 1 Copy</title><g stroke-width="2" stroke="#FFF" fill="none" fill-rule="evenodd" stroke-linecap="round"><path d="M1 11.9v3.37h12.956v-3.437"/><path stroke-linejoin="round" d="M7.376 1.362v9.277l4.532-4.648M7.308 10.61L3.1 6.293"/></g></symbol><symbol id="expand" viewBox="0 0 16 16"><title>icon</title><g stroke-width="2" stroke="#244775" fill="none" fill-rule="evenodd"><path d="M14.898 8.344V1.11H7.706M1.302 7.514v7.233h7.193"/><path d="M2.279 13.714l11.2-11.2" stroke-linecap="square"/></g></symbol><symbol id="message" viewBox="0 0 27 18"><title>letter</title><g stroke-width="2" stroke="#FFF" fill="none" fill-rule="evenodd"><path d="M1 1h25v16H1z"/><path stroke-linecap="round" stroke-linejoin="round" d="M1 1.22L13.5 11 26 1"/><path d="M2 16l7-8M25 16l-7-8"/></g></symbol><symbol id="pencil-no" viewBox="0 0 26 26"><title>Group 3</title><g fill-rule="evenodd"><path d="M17.653 10.07l-.778.777L14.932 8.9l.778-.778a.429.429 0 0 1 .592 0l1.35 1.354a.42.42 0 0 1 0 .592m.694-1.286l-1.35-1.353c-.264-.264-1.217-.763-1.977 0l-2.406 2.407.688.697.938-.94 1.943 1.946-.94.942.696.692 2.408-2.411a1.404 1.404 0 0 0 0-1.98M8.196 17.592l.57-2.028 1.455 1.457-2.025.57zm4.567-2.627l-1.604 1.607-1.944-1.946 1.604-1.606-.693-.693-1.952 1.953a.471.471 0 0 0-.124.214l-1.032 3.674a.5.5 0 0 0 .125.48c.124.127.374.148.48.124l3.67-1.034a.471.471 0 0 0 .213-.125l1.952-1.954-.695-.694zM18.142 18.371a.538.538 0 0 1-.382-.158L7.673 8.123a.54.54 0 0 1 .763-.763l10.088 10.09a.54.54 0 0 1-.382.921"/></g></symbol><symbol id="pencil" viewBox="0 0 26 26"><title>Group 2</title><path d="M18.304 9.26L17.03 7.982c-.249-.25-1.147-.72-1.865 0l-6.457 6.461a.445.445 0 0 0-.118.202l-.973 3.465a.47.47 0 0 0 .118.453c.117.12.353.14.452.117l3.463-.975a.445.445 0 0 0 .202-.118l6.452-6.462a1.324 1.324 0 0 0 0-1.867zm-9.037 6.395l1.372 1.374-1.91.539.538-1.913zm2.256.951L9.69 14.77l4.74-4.746 1.833 1.836-4.74 4.746zm6.127-6.134l-.733.734-1.833-1.836.733-.733c.15-.15.41-.15.559 0l1.274 1.276a.396.396 0 0 1 0 .56z" fill-rule="evenodd"/></symbol><symbol id="pointer-full" viewBox="0 0 33 33"><title>show_more</title><path d="M9.9 14.025l6.712 6.712 6.674-6.674" fill="none" fill-rule="evenodd"/></symbol><symbol id="pointer-white" viewBox="0 0 15 10"><title>Path 2 Copy</title><path d="M1 1l6.518 7L14 1.04" stroke-width="2" stroke="#FFF" fill="none" fill-rule="evenodd" stroke-linecap="round"/></symbol><symbol id="pointer" viewBox="0 0 16 10"><title>Path 2 Copy</title><path d="M1.6 1.6l6.509 6.509 6.472-6.472" stroke-width="2" stroke="#244775" fill="none" fill-rule="evenodd" stroke-linecap="round"/></symbol><symbol id="trash" viewBox="0 0 26 26"><title>Group 4</title><g fill-rule="evenodd"><path d="M17.694 9.155l-1.066 8.884H9.886L8.82 9.155h8.874zm-5.988-.876h3.102v-.897h-3.102v.897zm-4.264.876h.484l1.13 9.365a.433.433 0 0 0 .442.384h7.517c.227 0 .41-.16.442-.384l1.13-9.365h.485a.435.435 0 0 0 .442-.438.435.435 0 0 0-.442-.438H15.691V6.945a.435.435 0 0 0-.442-.438h-3.984a.435.435 0 0 0-.442.438v1.334H7.442A.435.435 0 0 0 7 8.717c0 .246.205.438.442.438z"/><path d="M11.792 16.704a.435.435 0 0 0 .442-.438v-5.242a.435.435 0 0 0-.442-.438.435.435 0 0 0-.441.438v5.242c0 .246.194.438.441.438M14.721 16.704a.435.435 0 0 0 .442-.438v-5.242a.435.435 0 0 0-.442-.438.435.435 0 0 0-.441.438v5.242c0 .246.205.438.441.438"/></g></symbol><symbol id="youtube" viewBox="0 0 24 18"><title>Group 13</title><g fill-rule="nonzero" fill="none"><path d="M22.946 14.575a2.917 2.917 0 0 1-2.458 2.341 60.91 60.91 0 0 1-8.78.645c-3.572 0-6.792-.352-8.781-.645a2.917 2.917 0 0 1-2.458-2.341C.233 13.23 0 11.239 0 8.78c0-2.458.233-4.45.469-5.794A2.917 2.917 0 0 1 2.927.645 60.91 60.91 0 0 1 11.707 0c3.63 0 6.791.352 8.78.645a2.917 2.917 0 0 1 2.459 2.341c.235 1.345.528 3.336.528 5.794-.06 2.459-.293 4.45-.528 5.795z" fill="#FF3D00"/><path fill="#FFF" d="M9.366 12.878V4.683L16.39 8.78z"/></g></symbol></svg>