<?xml version="1.0" encoding="UTF-8"?>
<svg width="26px" height="26px" viewBox="0 0 26 26" version="1.1" xmlns="http://www.w3.org/2000/svg" xmlns:xlink="http://www.w3.org/1999/xlink">
    <!-- Generator: Sketch 46.2 (44496) - http://www.bohemiancoding.com/sketch -->
    <title>Group 4</title>
    <desc>Created with Sketch.</desc>
    <defs></defs>
    <g id="Page-1" stroke="none" stroke-width="1" fill-rule="evenodd">
        <g id="ui-kit" transform="translate(-195.000000, -1736.000000)">
            <g id="Group-4" transform="translate(196.000000, 1737.000000)">
                <!--<g id="Group-2-Copy-2" stroke="#00CCCC" fill="#FFFFFF">-->
                    <!--<circle id="Oval-6" cx="12" cy="12" r="12"></circle>-->
                <!--</g>-->
                <g id="Page-1" transform="translate(6.000000, 5.400000)">
                    <path d="M10.6938677,2.75492593 L9.62771385,11.6389937 L2.88617538,11.6389937 L1.82002154,2.75492593 L10.6938677,2.75492593 Z M4.70617538,1.87933271 L7.80771385,1.87933271 L7.80771385,0.982383559 L4.70617538,0.982383559 L4.70617538,1.87933271 Z M0.44156,2.75492593 L0.926175385,2.75492593 L2.05694462,12.1195022 C2.07848308,12.3437395 2.27232923,12.503909 2.49848308,12.503909 L10.0154062,12.503909 C10.24156,12.503909 10.4246369,12.3437395 10.4569446,12.1195022 L11.5877138,2.75492593 L12.0723292,2.75492593 C12.3200215,2.75492593 12.51376,2.56272254 12.51376,2.31712932 C12.51376,2.0715361 12.3200215,1.87933271 12.0723292,1.87933271 L11.1892523,1.87933271 L8.69068308,1.87933271 L8.69068308,0.544586949 C8.69068308,0.298993729 8.49694462,0.106790339 8.24925231,0.106790339 L4.26463692,0.106790339 C4.01694462,0.106790339 3.82309846,0.298993729 3.82309846,0.544586949 L3.82309846,1.87933271 L1.32463692,1.87933271 L0.44156,1.87933271 C0.193867692,1.87933271 2.15384615e-05,2.0715361 2.15384615e-05,2.31712932 C2.15384615e-05,2.56272254 0.204636923,2.75492593 0.44156,2.75492593 L0.44156,2.75492593 Z" id="Fill-1"></path>
                    <path d="M4.79229692,10.3042159 C5.03998923,10.3042159 5.23383538,10.1120125 5.23383538,9.86641932 L5.23383538,4.62353797 C5.23383538,4.37794475 5.03998923,4.18574136 4.79229692,4.18574136 C4.54460462,4.18574136 4.35075846,4.37794475 4.35075846,4.62353797 L4.35075846,9.86641932 C4.35075846,10.1120125 4.54460462,10.3042159 4.79229692,10.3042159" id="Fill-4"></path>
                    <path d="M7.72149538,10.3042159 C7.96929538,10.3042159 8.16314154,10.1120125 8.16314154,9.86641932 L8.16314154,4.62353797 C8.16314154,4.37794475 7.96929538,4.18574136 7.72149538,4.18574136 C7.47380308,4.18574136 7.27995692,4.37794475 7.27995692,4.62353797 L7.27995692,9.86641932 C7.27995692,10.1120125 7.48468,10.3042159 7.72149538,10.3042159" id="Fill-6"></path>
                </g>
            </g>
        </g>
    </g>
</svg>